<svg xmlns="http://www.w3.org/2000/svg" xmlns:xlink="http://www.w3.org/1999/xlink" width="500" zoomAndPan="magnify" viewBox="0 0 375 374.999991" height="500" preserveAspectRatio="xMidYMid meet" version="1.0"><defs><g/><clipPath id="3d4111824a"><path d="M 117.425781 74.453125 L 257.675781 74.453125 L 257.675781 214.703125 L 117.425781 214.703125 Z M 117.425781 74.453125 " clip-rule="nonzero"/></clipPath><clipPath id="5f87dcfb84"><path d="M 177 75 L 257.675781 75 L 257.675781 168 L 177 168 Z M 177 75 " clip-rule="nonzero"/></clipPath><clipPath id="f006b2233c"><path d="M 117.425781 116 L 191 116 L 191 214 L 117.425781 214 Z M 117.425781 116 " clip-rule="nonzero"/></clipPath></defs><g fill="#000b3b" fill-opacity="1"><g transform="translate(31.786399, 254.578152)"><g><path d="M 29.609375 -39.546875 L 37.96875 -39.546875 L 37.96875 0 L 30.84375 0 L 12.9375 -24.6875 L 12.9375 0 L 4.515625 0 L 4.515625 -39.546875 L 12.265625 -39.546875 L 29.609375 -15.421875 Z M 29.609375 -39.546875 "/></g></g></g><g fill="#000b3b" fill-opacity="1"><g transform="translate(74.271455, 254.578152)"><g><path d="M 18.46875 0.84375 C 15.3125 0.84375 12.488281 0.140625 10 -1.265625 C 7.507812 -2.679688 5.550781 -4.601562 4.125 -7.03125 C 2.695312 -9.457031 1.984375 -12.195312 1.984375 -15.25 C 1.984375 -18.34375 2.695312 -21.101562 4.125 -23.53125 C 5.550781 -25.957031 7.507812 -27.867188 10 -29.265625 C 12.488281 -30.660156 15.3125 -31.359375 18.46875 -31.359375 C 21.601562 -31.359375 24.410156 -30.660156 26.890625 -29.265625 C 29.378906 -27.867188 31.335938 -25.957031 32.765625 -23.53125 C 34.203125 -21.101562 34.921875 -18.34375 34.921875 -15.25 C 34.921875 -12.195312 34.203125 -9.457031 32.765625 -7.03125 C 31.335938 -4.601562 29.378906 -2.679688 26.890625 -1.265625 C 24.410156 0.140625 21.601562 0.84375 18.46875 0.84375 Z M 18.46875 -6.890625 C 20.84375 -6.890625 22.785156 -7.660156 24.296875 -9.203125 C 25.804688 -10.753906 26.5625 -12.769531 26.5625 -15.25 C 26.5625 -17.738281 25.804688 -19.753906 24.296875 -21.296875 C 22.785156 -22.835938 20.84375 -23.609375 18.46875 -23.609375 C 16.0625 -23.609375 14.101562 -22.835938 12.59375 -21.296875 C 11.09375 -19.753906 10.34375 -17.738281 10.34375 -15.25 C 10.34375 -12.769531 11.09375 -10.753906 12.59375 -9.203125 C 14.101562 -7.660156 16.0625 -6.890625 18.46875 -6.890625 Z M 18.46875 -6.890625 "/></g></g></g><g fill="#000b3b" fill-opacity="1"><g transform="translate(111.163393, 254.578152)"><g><path d="M 18.875 -7.34375 L 22.59375 -7.34375 L 22.59375 0 L 16.78125 0 C 13.425781 0 10.78125 -0.96875 8.84375 -2.90625 C 6.90625 -4.84375 5.9375 -7.507812 5.9375 -10.90625 L 5.9375 -23.90625 L 0.390625 -23.90625 L 0.390625 -25.65625 L 12.484375 -38.46875 L 14.015625 -38.46875 L 14.015625 -30.515625 L 22.4375 -30.515625 L 22.4375 -23.90625 L 14.1875 -23.90625 L 14.1875 -11.984375 C 14.1875 -10.515625 14.585938 -9.375 15.390625 -8.5625 C 16.203125 -7.75 17.363281 -7.34375 18.875 -7.34375 Z M 18.875 -7.34375 "/></g></g></g><g fill="#000b3b" fill-opacity="1"><g transform="translate(135.456704, 254.578152)"><g><path d="M 33.5625 -15.375 C 33.5625 -14.582031 33.503906 -13.769531 33.390625 -12.9375 L 10.34375 -12.9375 C 10.675781 -10.863281 11.5 -9.269531 12.8125 -8.15625 C 14.132812 -7.050781 15.796875 -6.5 17.796875 -6.5 C 19.222656 -6.5 20.5 -6.804688 21.625 -7.421875 C 22.757812 -8.046875 23.628906 -8.90625 24.234375 -10 L 32.9375 -10 C 31.8125 -6.6875 29.890625 -4.050781 27.171875 -2.09375 C 24.460938 -0.132812 21.335938 0.84375 17.796875 0.84375 C 14.785156 0.84375 12.082031 0.140625 9.6875 -1.265625 C 7.300781 -2.679688 5.421875 -4.601562 4.046875 -7.03125 C 2.671875 -9.457031 1.984375 -12.195312 1.984375 -15.25 C 1.984375 -18.300781 2.671875 -21.039062 4.046875 -23.46875 C 5.421875 -25.90625 7.300781 -27.828125 9.6875 -29.234375 C 12.082031 -30.648438 14.785156 -31.359375 17.796875 -31.359375 C 20.921875 -31.359375 23.671875 -30.628906 26.046875 -29.171875 C 28.421875 -27.722656 30.265625 -25.796875 31.578125 -23.390625 C 32.898438 -20.984375 33.5625 -18.3125 33.5625 -15.375 Z M 17.796875 -24.34375 C 15.953125 -24.34375 14.398438 -23.832031 13.140625 -22.8125 C 11.878906 -21.800781 11.019531 -20.394531 10.5625 -18.59375 L 25.3125 -18.59375 C 24.101562 -22.425781 21.597656 -24.34375 17.796875 -24.34375 Z M 17.796875 -24.34375 "/></g></g></g><g fill="#ad7b30" fill-opacity="1"><g transform="translate(170.946547, 254.578152)"><g><path d="M 17.625 0.796875 C 14.613281 0.796875 11.957031 0.25 9.65625 -0.84375 C 7.363281 -1.9375 5.566406 -3.5 4.265625 -5.53125 C 2.960938 -7.570312 2.3125 -10.003906 2.3125 -12.828125 L 10.96875 -12.828125 C 10.96875 -10.898438 11.632812 -9.472656 12.96875 -8.546875 C 14.300781 -7.628906 15.835938 -7.171875 17.578125 -7.171875 C 18.660156 -7.171875 19.679688 -7.347656 20.640625 -7.703125 C 21.609375 -8.066406 22.398438 -8.597656 23.015625 -9.296875 C 23.640625 -9.992188 23.953125 -10.832031 23.953125 -11.8125 C 23.953125 -12.820312 23.59375 -13.617188 22.875 -14.203125 C 22.164062 -14.785156 21.207031 -15.265625 20 -15.640625 C 18.789062 -16.023438 17.472656 -16.382812 16.046875 -16.71875 C 14.578125 -17.0625 13.066406 -17.476562 11.515625 -17.96875 C 9.972656 -18.457031 8.539062 -19.101562 7.21875 -19.90625 C 5.90625 -20.71875 4.851562 -21.8125 4.0625 -23.1875 C 3.269531 -24.5625 2.875 -26.304688 2.875 -28.421875 C 2.875 -32.222656 4.164062 -35.148438 6.75 -37.203125 C 9.332031 -39.253906 12.828125 -40.28125 17.234375 -40.28125 C 21.753906 -40.28125 25.253906 -39.140625 27.734375 -36.859375 C 30.222656 -34.585938 31.46875 -31.492188 31.46875 -27.578125 L 23 -27.578125 C 23 -29.265625 22.394531 -30.515625 21.1875 -31.328125 C 19.976562 -32.140625 18.582031 -32.546875 17 -32.546875 C 15.613281 -32.546875 14.332031 -32.242188 13.15625 -31.640625 C 11.988281 -31.035156 11.40625 -30.09375 11.40625 -28.8125 C 11.40625 -27.875 11.753906 -27.128906 12.453125 -26.578125 C 13.148438 -26.035156 14.070312 -25.582031 15.21875 -25.21875 C 16.375 -24.863281 17.648438 -24.519531 19.046875 -24.1875 C 20.546875 -23.800781 22.085938 -23.351562 23.671875 -22.84375 C 25.253906 -22.34375 26.722656 -21.660156 28.078125 -20.796875 C 29.429688 -19.929688 30.53125 -18.78125 31.375 -17.34375 C 32.226562 -15.914062 32.65625 -14.109375 32.65625 -11.921875 C 32.65625 -9.054688 31.96875 -6.679688 30.59375 -4.796875 C 29.21875 -2.921875 27.398438 -1.519531 25.140625 -0.59375 C 22.878906 0.332031 20.375 0.796875 17.625 0.796875 Z M 17.625 0.796875 "/></g></g></g><g fill="#ad7b30" fill-opacity="1"><g transform="translate(205.917618, 254.578152)"><g><path d="M 18.140625 0.84375 C 15.085938 0.84375 12.335938 0.128906 9.890625 -1.296875 C 7.441406 -2.734375 5.507812 -4.675781 4.09375 -7.125 C 2.6875 -9.570312 1.984375 -12.320312 1.984375 -15.375 C 1.984375 -18.414062 2.6875 -21.140625 4.09375 -23.546875 C 5.507812 -25.960938 7.441406 -27.867188 9.890625 -29.265625 C 12.335938 -30.660156 15.101562 -31.359375 18.1875 -31.359375 C 20.820312 -31.359375 23.222656 -30.835938 25.390625 -29.796875 C 27.554688 -28.765625 29.363281 -27.304688 30.8125 -25.421875 C 32.269531 -23.535156 33.242188 -21.351562 33.734375 -18.875 L 25.53125 -18.875 C 24.851562 -20.375 23.863281 -21.535156 22.5625 -22.359375 C 21.269531 -23.191406 19.796875 -23.609375 18.140625 -23.609375 C 16.671875 -23.609375 15.34375 -23.238281 14.15625 -22.5 C 12.96875 -21.769531 12.035156 -20.785156 11.359375 -19.546875 C 10.679688 -18.304688 10.34375 -16.894531 10.34375 -15.3125 C 10.34375 -13.726562 10.679688 -12.304688 11.359375 -11.046875 C 12.035156 -9.785156 12.96875 -8.773438 14.15625 -8.015625 C 15.34375 -7.265625 16.671875 -6.890625 18.140625 -6.890625 C 19.828125 -6.890625 21.300781 -7.332031 22.5625 -8.21875 C 23.832031 -9.101562 24.820312 -10.375 25.53125 -12.03125 L 33.84375 -12.03125 C 33.351562 -9.46875 32.375 -7.21875 30.90625 -5.28125 C 29.4375 -3.34375 27.609375 -1.835938 25.421875 -0.765625 C 23.234375 0.304688 20.804688 0.84375 18.140625 0.84375 Z M 18.140625 0.84375 "/></g></g></g><g fill="#ad7b30" fill-opacity="1"><g transform="translate(241.227663, 254.578152)"><g><path d="M 18.46875 0.84375 C 15.3125 0.84375 12.488281 0.140625 10 -1.265625 C 7.507812 -2.679688 5.550781 -4.601562 4.125 -7.03125 C 2.695312 -9.457031 1.984375 -12.195312 1.984375 -15.25 C 1.984375 -18.34375 2.695312 -21.101562 4.125 -23.53125 C 5.550781 -25.957031 7.507812 -27.867188 10 -29.265625 C 12.488281 -30.660156 15.3125 -31.359375 18.46875 -31.359375 C 21.601562 -31.359375 24.410156 -30.660156 26.890625 -29.265625 C 29.378906 -27.867188 31.335938 -25.957031 32.765625 -23.53125 C 34.203125 -21.101562 34.921875 -18.34375 34.921875 -15.25 C 34.921875 -12.195312 34.203125 -9.457031 32.765625 -7.03125 C 31.335938 -4.601562 29.378906 -2.679688 26.890625 -1.265625 C 24.410156 0.140625 21.601562 0.84375 18.46875 0.84375 Z M 18.46875 -6.890625 C 20.84375 -6.890625 22.785156 -7.660156 24.296875 -9.203125 C 25.804688 -10.753906 26.5625 -12.769531 26.5625 -15.25 C 26.5625 -17.738281 25.804688 -19.753906 24.296875 -21.296875 C 22.785156 -22.835938 20.84375 -23.609375 18.46875 -23.609375 C 16.0625 -23.609375 14.101562 -22.835938 12.59375 -21.296875 C 11.09375 -19.753906 10.34375 -17.738281 10.34375 -15.25 C 10.34375 -12.769531 11.09375 -10.753906 12.59375 -9.203125 C 14.101562 -7.660156 16.0625 -6.890625 18.46875 -6.890625 Z M 18.46875 -6.890625 "/></g></g></g><g fill="#ad7b30" fill-opacity="1"><g transform="translate(278.119601, 254.578152)"><g><path d="M 20.625 -31.359375 C 23.675781 -31.359375 26.40625 -30.660156 28.8125 -29.265625 C 31.226562 -27.867188 33.128906 -25.957031 34.515625 -23.53125 C 35.910156 -21.101562 36.609375 -18.34375 36.609375 -15.25 C 36.609375 -12.164062 35.910156 -9.40625 34.515625 -6.96875 C 33.128906 -4.539062 31.226562 -2.617188 28.8125 -1.203125 C 26.40625 0.203125 23.675781 0.90625 20.625 0.90625 C 19.039062 0.90625 17.53125 0.675781 16.09375 0.21875 C 14.664062 -0.226562 13.367188 -0.847656 12.203125 -1.640625 L 12.203125 11.015625 L 3.953125 11.015625 L 3.953125 -30.515625 L 9.4375 -30.515625 L 10.84375 -27.734375 C 12.125 -28.867188 13.59375 -29.753906 15.25 -30.390625 C 16.90625 -31.035156 18.695312 -31.359375 20.625 -31.359375 Z M 19.9375 -6.890625 C 21.519531 -6.890625 22.941406 -7.253906 24.203125 -7.984375 C 25.472656 -8.722656 26.460938 -9.722656 27.171875 -10.984375 C 27.890625 -12.242188 28.25 -13.664062 28.25 -15.25 C 28.25 -16.832031 27.890625 -18.253906 27.171875 -19.515625 C 26.460938 -20.773438 25.472656 -21.769531 24.203125 -22.5 C 22.941406 -23.238281 21.519531 -23.609375 19.9375 -23.609375 C 18.320312 -23.609375 16.890625 -23.238281 15.640625 -22.5 C 14.398438 -21.769531 13.421875 -20.773438 12.703125 -19.515625 C 11.992188 -18.253906 11.640625 -16.832031 11.640625 -15.25 C 11.640625 -13.664062 11.992188 -12.242188 12.703125 -10.984375 C 13.421875 -9.722656 14.398438 -8.722656 15.640625 -7.984375 C 16.890625 -7.253906 18.320312 -6.890625 19.9375 -6.890625 Z M 19.9375 -6.890625 "/></g></g></g><g fill="#ad7b30" fill-opacity="1"><g transform="translate(316.649933, 254.578152)"><g><path d="M 33.5625 -15.375 C 33.5625 -14.582031 33.503906 -13.769531 33.390625 -12.9375 L 10.34375 -12.9375 C 10.675781 -10.863281 11.5 -9.269531 12.8125 -8.15625 C 14.132812 -7.050781 15.796875 -6.5 17.796875 -6.5 C 19.222656 -6.5 20.5 -6.804688 21.625 -7.421875 C 22.757812 -8.046875 23.628906 -8.90625 24.234375 -10 L 32.9375 -10 C 31.8125 -6.6875 29.890625 -4.050781 27.171875 -2.09375 C 24.460938 -0.132812 21.335938 0.84375 17.796875 0.84375 C 14.785156 0.84375 12.082031 0.140625 9.6875 -1.265625 C 7.300781 -2.679688 5.421875 -4.601562 4.046875 -7.03125 C 2.671875 -9.457031 1.984375 -12.195312 1.984375 -15.25 C 1.984375 -18.300781 2.671875 -21.039062 4.046875 -23.46875 C 5.421875 -25.90625 7.300781 -27.828125 9.6875 -29.234375 C 12.082031 -30.648438 14.785156 -31.359375 17.796875 -31.359375 C 20.921875 -31.359375 23.671875 -30.628906 26.046875 -29.171875 C 28.421875 -27.722656 30.265625 -25.796875 31.578125 -23.390625 C 32.898438 -20.984375 33.5625 -18.3125 33.5625 -15.375 Z M 17.796875 -24.34375 C 15.953125 -24.34375 14.398438 -23.832031 13.140625 -22.8125 C 11.878906 -21.800781 11.019531 -20.394531 10.5625 -18.59375 L 25.3125 -18.59375 C 24.101562 -22.425781 21.597656 -24.34375 17.796875 -24.34375 Z M 17.796875 -24.34375 "/></g></g></g><g clip-path="url(#3d4111824a)"><path fill="#ffffff" d="M 117.425781 74.453125 L 257.570312 74.453125 L 257.570312 214.597656 L 117.425781 214.597656 Z M 117.425781 74.453125 " fill-opacity="1" fill-rule="nonzero"/></g><g clip-path="url(#5f87dcfb84)"><path fill="#ffbd59" d="M 232.398438 152.652344 C 227.71875 154.585938 222.589844 155.652344 217.207031 155.652344 C 195.121094 155.652344 177.183594 137.710938 177.183594 115.625 C 177.183594 93.539062 195.121094 75.601562 217.207031 75.601562 C 239.292969 75.601562 257.234375 93.539062 257.234375 115.625 C 257.234375 127.480469 252.046875 138.160156 243.835938 145.503906 L 252.46875 167.703125 Z M 232.398438 152.652344 " fill-opacity="1" fill-rule="nonzero"/></g><path fill="#ffbd59" d="M 177.292969 112.375 C 177.210938 113.441406 177.15625 114.503906 177.15625 115.597656 C 177.15625 128.800781 183.574219 140.515625 193.441406 147.832031 L 193.441406 179.894531 L 152.9375 179.894531 L 150.359375 202.125 L 140.128906 179.894531 L 128.300781 179.894531 L 128.300781 112.375 Z M 177.292969 112.375 " fill-opacity="1" fill-rule="nonzero"/><path fill="#000b3b" d="M 224.886719 164.507812 L 243.386719 178.355469 C 244.675781 179.308594 246.441406 179.308594 247.730469 178.328125 C 249.019531 177.34375 249.496094 175.636719 248.910156 174.152344 L 241.144531 154.195312 C 249.019531 146.289062 253.898438 135.386719 253.898438 123.363281 C 253.898438 99.285156 234.332031 79.722656 210.257812 79.722656 C 186.179688 79.722656 166.617188 99.285156 166.617188 123.363281 C 166.617188 147.4375 186.179688 167.003906 210.257812 167.003906 C 215.386719 167.03125 220.320312 166.132812 224.886719 164.507812 Z M 227.636719 157.527344 C 226.625 156.773438 225.28125 156.605469 224.101562 157.082031 C 219.84375 158.847656 215.160156 159.800781 210.285156 159.800781 C 190.1875 159.800781 173.875 143.488281 173.875 123.390625 C 173.875 103.292969 190.1875 86.980469 210.285156 86.980469 C 230.382812 86.980469 246.695312 103.292969 246.695312 123.390625 C 246.695312 134.179688 241.984375 143.90625 234.5 150.550781 C 233.378906 151.558594 232.988281 153.15625 233.550781 154.558594 L 237.613281 165.011719 Z M 227.636719 157.527344 " fill-opacity="1" fill-rule="nonzero"/><path fill="#000b3b" d="M 133.820312 172.523438 L 170.203125 172.523438 C 172.195312 172.523438 173.820312 170.898438 173.820312 168.910156 C 173.820312 166.917969 172.195312 165.292969 170.203125 165.292969 L 133.820312 165.292969 C 131.832031 165.292969 130.207031 166.917969 130.207031 168.910156 C 130.234375 170.925781 131.832031 172.523438 133.820312 172.523438 Z M 133.820312 156.96875 L 168.015625 156.96875 C 170.007812 156.96875 171.632812 155.34375 171.632812 153.351562 C 171.632812 151.363281 170.007812 149.738281 168.015625 149.738281 L 133.820312 149.738281 C 131.832031 149.738281 130.207031 151.363281 130.207031 153.351562 C 130.234375 155.34375 131.832031 156.96875 133.820312 156.96875 Z M 133.820312 141.414062 L 156.804688 141.414062 C 158.796875 141.414062 160.421875 139.785156 160.421875 137.796875 C 160.421875 135.808594 158.796875 134.179688 156.804688 134.179688 L 133.820312 134.179688 C 131.832031 134.179688 130.207031 135.808594 130.207031 137.796875 C 130.234375 139.785156 131.832031 141.414062 133.820312 141.414062 Z M 133.820312 141.414062 " fill-opacity="1" fill-rule="nonzero"/><path fill="#000b3b" d="M 227.355469 119.859375 L 204.371094 119.859375 C 202.378906 119.859375 200.753906 121.484375 200.753906 123.472656 C 200.753906 125.464844 202.378906 127.089844 204.371094 127.089844 L 227.355469 127.089844 C 229.34375 127.089844 230.96875 125.464844 230.96875 123.472656 C 230.96875 121.457031 229.34375 119.859375 227.355469 119.859375 Z M 227.355469 104.273438 L 193.160156 104.273438 C 191.167969 104.273438 189.542969 105.898438 189.542969 107.890625 C 189.542969 109.878906 191.167969 111.503906 193.160156 111.503906 L 227.355469 111.503906 C 229.34375 111.503906 230.96875 109.878906 230.96875 107.890625 C 230.96875 105.898438 229.34375 104.273438 227.355469 104.273438 Z M 227.355469 104.273438 " fill-opacity="1" fill-rule="nonzero"/><g clip-path="url(#f006b2233c)"><path fill="#000b3b" d="M 173.960938 120.445312 C 174.042969 119.4375 173.707031 118.457031 173.007812 117.699219 C 172.332031 116.972656 171.351562 116.550781 170.34375 116.550781 L 121.378906 116.550781 C 119.386719 116.550781 117.761719 118.175781 117.761719 120.167969 L 117.761719 187.660156 C 117.761719 189.652344 119.386719 191.277344 121.378906 191.277344 L 130.878906 191.277344 L 140.128906 211.402344 C 140.800781 212.859375 142.371094 213.699219 143.96875 213.445312 C 145.566406 213.195312 146.800781 211.90625 146.996094 210.308594 L 149.210938 191.277344 C 158.796875 191.277344 186.488281 191.277344 186.488281 191.277344 C 188.476562 191.277344 190.105469 189.652344 190.105469 187.660156 L 190.105469 155.59375 C 190.105469 154.445312 189.570312 153.382812 188.648438 152.679688 C 179.648438 146.039062 173.820312 135.386719 173.820312 123.363281 C 173.847656 122.382812 173.875 121.398438 173.960938 120.445312 Z M 166.617188 123.753906 C 166.726562 137.320312 173.0625 149.429688 182.902344 157.359375 L 182.902344 184.042969 L 146.015625 184.042969 C 144.191406 184.042969 142.652344 185.417969 142.425781 187.238281 L 141.332031 196.6875 L 136.484375 186.148438 C 135.894531 184.859375 134.605469 184.042969 133.207031 184.042969 L 124.992188 184.042969 L 124.992188 123.753906 Z M 166.617188 123.753906 " fill-opacity="1" fill-rule="nonzero"/></g></svg>