<svg xmlns="http://www.w3.org/2000/svg" xmlns:xlink="http://www.w3.org/1999/xlink" width="500" zoomAndPan="magnify" viewBox="0 0 375 374.999991" height="500" preserveAspectRatio="xMidYMid meet" version="1.0"><defs><g/><clipPath id="86dbc770d3"><path d="M 110.941406 171.871094 L 251.640625 171.871094 L 251.640625 204.09375 L 110.941406 204.09375 Z M 110.941406 171.871094 " clip-rule="nonzero"/></clipPath><clipPath id="53491c2424"><path d="M 163 104.941406 L 200 104.941406 L 200 173 L 163 173 Z M 163 104.941406 " clip-rule="nonzero"/></clipPath><clipPath id="e4ed2de36e"><path d="M 154.726562 145 L 208.859375 145 L 208.859375 211.921875 L 154.726562 211.921875 Z M 154.726562 145 " clip-rule="nonzero"/></clipPath></defs><g clip-path="url(#86dbc770d3)"><path fill="#f5cd7b" d="M 167.835938 191.648438 C 167.488281 191.648438 167.210938 191.457031 167.210938 191.214844 L 167.210938 184.757812 C 167.210938 184.519531 167.488281 184.324219 167.835938 184.324219 C 168.179688 184.324219 168.460938 184.519531 168.460938 184.757812 L 168.460938 191.214844 C 168.460938 191.457031 168.179688 191.648438 167.835938 191.648438 Z M 170.28125 191.648438 C 169.9375 191.648438 169.65625 191.457031 169.65625 191.214844 L 169.65625 184.757812 C 169.65625 184.519531 169.9375 184.324219 170.28125 184.324219 C 170.625 184.324219 170.90625 184.519531 170.90625 184.757812 L 170.90625 191.214844 C 170.90625 191.457031 170.625 191.648438 170.28125 191.648438 Z M 172.726562 191.648438 C 172.382812 191.648438 172.101562 191.457031 172.101562 191.214844 L 172.101562 184.757812 C 172.101562 184.519531 172.382812 184.324219 172.726562 184.324219 C 173.074219 184.324219 173.351562 184.519531 173.351562 184.757812 L 173.351562 191.214844 C 173.351562 191.457031 173.074219 191.648438 172.726562 191.648438 Z M 121.351562 191.6875 C 121.007812 191.6875 120.726562 191.492188 120.726562 191.253906 L 120.726562 184.722656 C 120.726562 184.480469 121.007812 184.289062 121.351562 184.289062 C 121.695312 184.289062 121.976562 184.480469 121.976562 184.722656 L 121.976562 191.253906 C 121.976562 191.492188 121.695312 191.6875 121.351562 191.6875 Z M 123.800781 191.6875 C 123.453125 191.6875 123.175781 191.492188 123.175781 191.253906 L 123.175781 184.722656 C 123.175781 184.480469 123.453125 184.289062 123.800781 184.289062 C 124.144531 184.289062 124.421875 184.480469 124.421875 184.722656 L 124.421875 191.253906 C 124.421875 191.492188 124.144531 191.6875 123.800781 191.6875 Z M 126.246094 191.6875 C 125.898438 191.6875 125.621094 191.492188 125.621094 191.253906 L 125.621094 184.722656 C 125.621094 184.480469 125.898438 184.289062 126.246094 184.289062 C 126.589844 184.289062 126.871094 184.480469 126.871094 184.722656 L 126.871094 191.253906 C 126.871094 191.492188 126.589844 191.6875 126.246094 191.6875 Z M 238.78125 191.6875 C 238.4375 191.6875 238.15625 191.492188 238.15625 191.253906 L 238.15625 184.722656 C 238.15625 184.480469 238.4375 184.289062 238.78125 184.289062 C 239.128906 184.289062 239.40625 184.480469 239.40625 184.722656 L 239.40625 191.253906 C 239.40625 191.492188 239.128906 191.6875 238.78125 191.6875 Z M 241.230469 191.6875 C 240.882812 191.6875 240.605469 191.492188 240.605469 191.253906 L 240.605469 184.722656 C 240.605469 184.480469 240.882812 184.289062 241.230469 184.289062 C 241.574219 184.289062 241.855469 184.480469 241.855469 184.722656 L 241.855469 191.253906 C 241.855469 191.492188 241.574219 191.6875 241.230469 191.6875 Z M 243.675781 191.6875 C 243.328125 191.6875 243.050781 191.492188 243.050781 191.253906 L 243.050781 184.722656 C 243.050781 184.480469 243.328125 184.289062 243.675781 184.289062 C 244.019531 184.289062 244.300781 184.480469 244.300781 184.722656 L 244.300781 191.253906 C 244.300781 191.492188 244.019531 191.6875 243.675781 191.6875 Z M 118.90625 192.753906 C 118.558594 192.753906 118.28125 192.558594 118.28125 192.320312 L 118.28125 183.652344 C 118.28125 183.414062 118.558594 183.222656 118.90625 183.222656 C 119.25 183.222656 119.53125 183.414062 119.53125 183.652344 L 119.53125 192.320312 C 119.53125 192.558594 119.25 192.753906 118.90625 192.753906 Z M 150.710938 192.753906 C 150.363281 192.753906 150.085938 192.558594 150.085938 192.320312 L 150.085938 183.652344 C 150.085938 183.414062 150.363281 183.222656 150.710938 183.222656 C 151.054688 183.222656 151.335938 183.414062 151.335938 183.652344 L 151.335938 192.320312 C 151.335938 192.558594 151.054688 192.753906 150.710938 192.753906 Z M 153.15625 192.753906 C 152.8125 192.753906 152.53125 192.558594 152.53125 192.320312 L 152.53125 183.652344 C 152.53125 183.414062 152.8125 183.222656 153.15625 183.222656 C 153.5 183.222656 153.78125 183.414062 153.78125 183.652344 L 153.78125 192.320312 C 153.78125 192.558594 153.5 192.753906 153.15625 192.753906 Z M 155.601562 192.753906 C 155.257812 192.753906 154.976562 192.558594 154.976562 192.320312 L 154.976562 183.652344 C 154.976562 183.414062 155.257812 183.222656 155.601562 183.222656 C 155.949219 183.222656 156.226562 183.414062 156.226562 183.652344 L 156.226562 192.320312 C 156.226562 192.558594 155.949219 192.753906 155.601562 192.753906 Z M 158.050781 192.753906 C 157.703125 192.753906 157.421875 192.558594 157.421875 192.320312 L 157.421875 183.652344 C 157.421875 183.414062 157.703125 183.222656 158.050781 183.222656 C 158.394531 183.222656 158.675781 183.414062 158.675781 183.652344 L 158.675781 192.320312 C 158.675781 192.558594 158.394531 192.753906 158.050781 192.753906 Z M 165.386719 192.753906 C 165.042969 192.753906 164.761719 192.558594 164.761719 192.320312 L 164.761719 183.652344 C 164.761719 183.414062 165.042969 183.222656 165.386719 183.222656 C 165.734375 183.222656 166.015625 183.414062 166.015625 183.652344 L 166.015625 192.320312 C 166.015625 192.558594 165.734375 192.753906 165.386719 192.753906 Z M 175.175781 192.753906 C 174.828125 192.753906 174.550781 192.558594 174.550781 192.320312 L 174.550781 183.652344 C 174.550781 183.414062 174.828125 183.222656 175.175781 183.222656 C 175.519531 183.222656 175.800781 183.414062 175.800781 183.652344 L 175.800781 192.320312 C 175.800781 192.558594 175.519531 192.753906 175.175781 192.753906 Z M 206.976562 192.753906 C 206.632812 192.753906 206.355469 192.558594 206.355469 192.320312 L 206.355469 183.652344 C 206.355469 183.414062 206.632812 183.222656 206.976562 183.222656 C 207.324219 183.222656 207.601562 183.414062 207.601562 183.652344 L 207.601562 192.320312 C 207.601562 192.558594 207.324219 192.753906 206.976562 192.753906 Z M 209.425781 192.753906 C 209.082031 192.753906 208.800781 192.558594 208.800781 192.320312 L 208.800781 183.652344 C 208.800781 183.414062 209.082031 183.222656 209.425781 183.222656 C 209.769531 183.222656 210.050781 183.414062 210.050781 183.652344 L 210.050781 192.320312 C 210.050781 192.558594 209.769531 192.753906 209.425781 192.753906 Z M 211.871094 192.753906 C 211.527344 192.753906 211.246094 192.558594 211.246094 192.320312 L 211.246094 183.652344 C 211.246094 183.414062 211.527344 183.222656 211.871094 183.222656 C 212.21875 183.222656 212.496094 183.414062 212.496094 183.652344 L 212.496094 192.320312 C 212.496094 192.558594 212.21875 192.753906 211.871094 192.753906 Z M 214.316406 192.753906 C 213.972656 192.753906 213.691406 192.558594 213.691406 192.320312 L 213.691406 183.652344 C 213.691406 183.414062 213.972656 183.222656 214.316406 183.222656 C 214.664062 183.222656 214.941406 183.414062 214.941406 183.652344 L 214.941406 192.320312 C 214.941406 192.558594 214.664062 192.753906 214.316406 192.753906 Z M 246.121094 192.753906 C 245.777344 192.753906 245.496094 192.558594 245.496094 192.320312 L 245.496094 183.652344 C 245.496094 183.414062 245.777344 183.222656 246.121094 183.222656 C 246.464844 183.222656 246.746094 183.414062 246.746094 183.652344 L 246.746094 192.320312 C 246.746094 192.558594 246.464844 192.753906 246.121094 192.753906 Z M 248.570312 192.753906 C 248.222656 192.753906 247.945312 192.558594 247.945312 192.320312 L 247.945312 183.652344 C 247.945312 183.414062 248.222656 183.222656 248.570312 183.222656 C 248.914062 183.222656 249.191406 183.414062 249.191406 183.652344 L 249.191406 192.320312 C 249.191406 192.558594 248.914062 192.753906 248.570312 192.753906 Z M 251.015625 192.753906 C 250.667969 192.753906 250.390625 192.558594 250.390625 192.320312 L 250.390625 183.652344 C 250.390625 183.414062 250.667969 183.222656 251.015625 183.222656 C 251.359375 183.222656 251.640625 183.414062 251.640625 183.652344 L 251.640625 192.320312 C 251.640625 192.558594 251.359375 192.753906 251.015625 192.753906 Z M 180.066406 193.355469 C 179.722656 193.355469 179.441406 193.160156 179.441406 192.921875 L 179.441406 183.050781 C 179.441406 182.8125 179.722656 182.617188 180.066406 182.617188 C 180.410156 182.617188 180.691406 182.8125 180.691406 183.050781 L 180.691406 192.921875 C 180.691406 193.160156 180.410156 193.355469 180.066406 193.355469 Z M 182.515625 193.355469 C 182.167969 193.355469 181.890625 193.160156 181.890625 192.921875 L 181.890625 183.050781 C 181.890625 182.8125 182.167969 182.617188 182.515625 182.617188 C 182.859375 182.617188 183.140625 182.8125 183.140625 183.050781 L 183.140625 192.921875 C 183.140625 193.160156 182.859375 193.355469 182.515625 193.355469 Z M 138.476562 193.535156 C 138.132812 193.535156 137.851562 193.339844 137.851562 193.101562 L 137.851562 182.875 C 137.851562 182.632812 138.132812 182.441406 138.476562 182.441406 C 138.824219 182.441406 139.101562 182.632812 139.101562 182.875 L 139.101562 193.101562 C 139.101562 193.339844 138.824219 193.535156 138.476562 193.535156 Z M 114.011719 194.40625 C 113.667969 194.40625 113.386719 194.210938 113.386719 193.972656 L 113.386719 182 C 113.386719 181.761719 113.667969 181.566406 114.011719 181.566406 C 114.359375 181.566406 114.636719 181.761719 114.636719 182 L 114.636719 193.972656 C 114.636719 194.210938 114.359375 194.40625 114.011719 194.40625 Z M 177.621094 195.050781 C 177.277344 195.050781 176.996094 194.855469 176.996094 194.617188 L 176.996094 181.359375 C 176.996094 181.121094 177.277344 180.925781 177.621094 180.925781 C 177.964844 180.925781 178.246094 181.121094 178.246094 181.359375 L 178.246094 194.617188 C 178.246094 194.855469 177.964844 195.050781 177.621094 195.050781 Z M 231.441406 195.175781 C 231.097656 195.175781 230.816406 194.980469 230.816406 194.742188 L 230.816406 181.234375 C 230.816406 180.992188 231.097656 180.800781 231.441406 180.800781 C 231.789062 180.800781 232.070312 180.992188 232.070312 181.234375 L 232.070312 194.742188 C 232.070312 194.980469 231.789062 195.175781 231.441406 195.175781 Z M 136.03125 195.175781 C 135.6875 195.175781 135.40625 194.984375 135.40625 194.742188 L 135.40625 181.230469 C 135.40625 180.992188 135.6875 180.796875 136.03125 180.796875 C 136.375 180.796875 136.65625 180.992188 136.65625 181.230469 L 136.65625 194.742188 C 136.65625 194.984375 136.375 195.175781 136.03125 195.175781 Z M 224.101562 195.566406 C 223.757812 195.566406 223.476562 195.371094 223.476562 195.132812 L 223.476562 180.84375 C 223.476562 180.601562 223.757812 180.410156 224.101562 180.410156 C 224.449219 180.410156 224.730469 180.601562 224.730469 180.84375 L 224.730469 195.132812 C 224.730469 195.371094 224.449219 195.566406 224.101562 195.566406 Z M 226.550781 195.566406 C 226.207031 195.566406 225.925781 195.371094 225.925781 195.132812 L 225.925781 180.84375 C 225.925781 180.601562 226.207031 180.410156 226.550781 180.410156 C 226.894531 180.410156 227.175781 180.601562 227.175781 180.84375 L 227.175781 195.132812 C 227.175781 195.371094 226.894531 195.566406 226.550781 195.566406 Z M 184.960938 195.78125 C 184.613281 195.78125 184.335938 195.585938 184.335938 195.347656 L 184.335938 180.628906 C 184.335938 180.390625 184.613281 180.195312 184.960938 180.195312 C 185.304688 180.195312 185.585938 180.390625 185.585938 180.628906 L 185.585938 195.347656 C 185.585938 195.585938 185.304688 195.78125 184.960938 195.78125 Z M 194.746094 196.042969 C 194.402344 196.042969 194.121094 195.847656 194.121094 195.609375 L 194.121094 180.363281 C 194.121094 180.125 194.402344 179.929688 194.746094 179.929688 C 195.089844 179.929688 195.371094 180.125 195.371094 180.363281 L 195.371094 195.609375 C 195.371094 195.847656 195.089844 196.042969 194.746094 196.042969 Z M 143.371094 196.320312 C 143.027344 196.320312 142.746094 196.128906 142.746094 195.886719 L 142.746094 180.085938 C 142.746094 179.847656 143.027344 179.652344 143.371094 179.652344 C 143.714844 179.652344 143.996094 179.847656 143.996094 180.085938 L 143.996094 195.886719 C 143.996094 196.128906 143.714844 196.320312 143.371094 196.320312 Z M 145.816406 196.320312 C 145.472656 196.320312 145.191406 196.128906 145.191406 195.886719 L 145.191406 180.085938 C 145.191406 179.847656 145.472656 179.652344 145.816406 179.652344 C 146.164062 179.652344 146.441406 179.847656 146.441406 180.085938 L 146.441406 195.886719 C 146.441406 196.128906 146.164062 196.320312 145.816406 196.320312 Z M 116.460938 197.253906 C 116.113281 197.253906 115.835938 197.0625 115.835938 196.820312 L 115.835938 179.152344 C 115.835938 178.914062 116.113281 178.71875 116.460938 178.71875 C 116.804688 178.71875 117.085938 178.914062 117.085938 179.152344 L 117.085938 196.820312 C 117.085938 197.0625 116.804688 197.253906 116.460938 197.253906 Z M 128.691406 197.253906 C 128.347656 197.253906 128.066406 197.0625 128.066406 196.820312 L 128.066406 179.152344 C 128.066406 178.914062 128.347656 178.71875 128.691406 178.71875 C 129.035156 178.71875 129.316406 178.914062 129.316406 179.152344 L 129.316406 196.820312 C 129.316406 197.0625 129.035156 197.253906 128.691406 197.253906 Z M 160.496094 197.253906 C 160.152344 197.253906 159.871094 197.0625 159.871094 196.820312 L 159.871094 179.152344 C 159.871094 178.914062 160.152344 178.71875 160.496094 178.71875 C 160.839844 178.71875 161.121094 178.914062 161.121094 179.152344 L 161.121094 196.820312 C 161.121094 197.0625 160.839844 197.253906 160.496094 197.253906 Z M 204.53125 197.253906 C 204.1875 197.253906 203.90625 197.0625 203.90625 196.820312 L 203.90625 179.152344 C 203.90625 178.914062 204.1875 178.71875 204.53125 178.71875 C 204.878906 178.71875 205.15625 178.914062 205.15625 179.152344 L 205.15625 196.820312 C 205.15625 197.0625 204.878906 197.253906 204.53125 197.253906 Z M 216.765625 197.253906 C 216.417969 197.253906 216.140625 197.0625 216.140625 196.820312 L 216.140625 179.152344 C 216.140625 178.914062 216.417969 178.71875 216.765625 178.71875 C 217.109375 178.71875 217.390625 178.914062 217.390625 179.152344 L 217.390625 196.820312 C 217.390625 197.0625 217.109375 197.253906 216.765625 197.253906 Z M 131.136719 197.355469 C 130.792969 197.355469 130.511719 197.164062 130.511719 196.921875 L 130.511719 179.050781 C 130.511719 178.8125 130.792969 178.617188 131.136719 178.617188 C 131.484375 178.617188 131.761719 178.8125 131.761719 179.050781 L 131.761719 196.921875 C 131.761719 197.164062 131.484375 197.355469 131.136719 197.355469 Z M 162.941406 197.355469 C 162.597656 197.355469 162.316406 197.164062 162.316406 196.921875 L 162.316406 179.050781 C 162.316406 178.8125 162.597656 178.617188 162.941406 178.617188 C 163.285156 178.617188 163.566406 178.8125 163.566406 179.050781 L 163.566406 196.921875 C 163.566406 197.164062 163.285156 197.355469 162.941406 197.355469 Z M 202.085938 197.355469 C 201.742188 197.355469 201.460938 197.164062 201.460938 196.921875 L 201.460938 179.050781 C 201.460938 178.8125 201.742188 178.617188 202.085938 178.617188 C 202.429688 178.617188 202.710938 178.8125 202.710938 179.050781 L 202.710938 196.921875 C 202.710938 197.164062 202.429688 197.355469 202.085938 197.355469 Z M 219.210938 197.355469 C 218.867188 197.355469 218.585938 197.164062 218.585938 196.921875 L 218.585938 179.050781 C 218.585938 178.8125 218.867188 178.617188 219.210938 178.617188 C 219.554688 178.617188 219.835938 178.8125 219.835938 179.050781 L 219.835938 196.921875 C 219.835938 197.164062 219.554688 197.355469 219.210938 197.355469 Z M 187.40625 197.59375 C 187.0625 197.59375 186.78125 197.398438 186.78125 197.160156 L 186.78125 178.8125 C 186.78125 178.574219 187.0625 178.378906 187.40625 178.378906 C 187.75 178.378906 188.03125 178.574219 188.03125 178.8125 L 188.03125 197.160156 C 188.03125 197.398438 187.75 197.59375 187.40625 197.59375 Z M 189.851562 197.59375 C 189.507812 197.59375 189.230469 197.398438 189.230469 197.160156 L 189.230469 178.8125 C 189.230469 178.574219 189.507812 178.378906 189.851562 178.378906 C 190.199219 178.378906 190.476562 178.574219 190.476562 178.8125 L 190.476562 197.160156 C 190.476562 197.398438 190.199219 197.59375 189.851562 197.59375 Z M 197.191406 197.59375 C 196.847656 197.59375 196.566406 197.398438 196.566406 197.160156 L 196.566406 178.8125 C 196.566406 178.574219 196.847656 178.378906 197.191406 178.378906 C 197.539062 178.378906 197.816406 178.574219 197.816406 178.8125 L 197.816406 197.160156 C 197.816406 197.398438 197.539062 197.59375 197.191406 197.59375 Z M 233.890625 197.59375 C 233.542969 197.59375 233.265625 197.398438 233.265625 197.160156 L 233.265625 178.8125 C 233.265625 178.574219 233.542969 178.378906 233.890625 178.378906 C 234.234375 178.378906 234.515625 178.574219 234.515625 178.8125 L 234.515625 197.160156 C 234.515625 197.398438 234.234375 197.59375 233.890625 197.59375 Z M 140.921875 198.554688 C 140.578125 198.554688 140.300781 198.359375 140.300781 198.121094 L 140.300781 177.851562 C 140.300781 177.613281 140.578125 177.417969 140.921875 177.417969 C 141.269531 177.417969 141.546875 177.613281 141.546875 177.851562 L 141.546875 198.121094 C 141.546875 198.359375 141.269531 198.554688 140.921875 198.554688 Z M 228.996094 200.160156 C 228.652344 200.160156 228.371094 199.96875 228.371094 199.726562 L 228.371094 176.246094 C 228.371094 176.007812 228.652344 175.8125 228.996094 175.8125 C 229.339844 175.8125 229.621094 176.007812 229.621094 176.246094 L 229.621094 199.726562 C 229.621094 199.96875 229.339844 200.160156 228.996094 200.160156 Z M 236.335938 200.160156 C 235.992188 200.160156 235.710938 199.96875 235.710938 199.726562 L 235.710938 176.246094 C 235.710938 176.007812 235.992188 175.8125 236.335938 175.8125 C 236.679688 175.8125 236.960938 176.007812 236.960938 176.246094 L 236.960938 199.726562 C 236.960938 199.96875 236.679688 200.160156 236.335938 200.160156 Z M 111.566406 201.476562 C 111.222656 201.476562 110.941406 201.28125 110.941406 201.042969 L 110.941406 174.933594 C 110.941406 174.691406 111.222656 174.5 111.566406 174.5 C 111.910156 174.5 112.191406 174.691406 112.191406 174.933594 L 112.191406 201.042969 C 112.191406 201.28125 111.910156 201.476562 111.566406 201.476562 Z M 133.585938 201.53125 C 133.238281 201.53125 132.960938 201.335938 132.960938 201.097656 L 132.960938 174.875 C 132.960938 174.636719 133.238281 174.441406 133.585938 174.441406 C 133.929688 174.441406 134.210938 174.636719 134.210938 174.875 L 134.210938 201.097656 C 134.210938 201.335938 133.929688 201.53125 133.585938 201.53125 Z M 148.261719 201.585938 C 147.917969 201.585938 147.636719 201.394531 147.636719 201.152344 L 147.636719 174.820312 C 147.636719 174.582031 147.917969 174.386719 148.261719 174.386719 C 148.609375 174.386719 148.886719 174.582031 148.886719 174.820312 L 148.886719 201.152344 C 148.886719 201.394531 148.609375 201.585938 148.261719 201.585938 Z M 192.300781 201.585938 C 191.953125 201.585938 191.675781 201.394531 191.675781 201.152344 L 191.675781 174.820312 C 191.675781 174.582031 191.953125 174.386719 192.300781 174.386719 C 192.644531 174.386719 192.925781 174.582031 192.925781 174.820312 L 192.925781 201.152344 C 192.925781 201.394531 192.644531 201.585938 192.300781 201.585938 Z M 221.65625 201.835938 C 221.3125 201.835938 221.03125 201.644531 221.03125 201.402344 L 221.03125 174.570312 C 221.03125 174.332031 221.3125 174.136719 221.65625 174.136719 C 222.003906 174.136719 222.28125 174.332031 222.28125 174.570312 L 222.28125 201.402344 C 222.28125 201.644531 222.003906 201.835938 221.65625 201.835938 Z M 199.636719 204.105469 C 199.292969 204.105469 199.015625 203.910156 199.015625 203.671875 L 199.015625 172.300781 C 199.015625 172.0625 199.292969 171.867188 199.636719 171.867188 C 199.984375 171.867188 200.261719 172.0625 200.261719 172.300781 L 200.261719 203.671875 C 200.261719 203.910156 199.984375 204.105469 199.636719 204.105469 " fill-opacity="1" fill-rule="nonzero"/></g><g clip-path="url(#53491c2424)"><path fill="#ffffff" d="M 170.375 145.179688 L 165.902344 145.179688 C 164.667969 145.179688 163.667969 146.179688 163.667969 147.414062 C 163.667969 148.652344 164.667969 149.652344 165.902344 149.652344 L 170.375 149.652344 C 171.609375 149.652344 172.609375 150.652344 172.609375 151.886719 C 172.609375 153.121094 171.609375 154.121094 170.375 154.121094 L 166.082031 154.121094 C 164.726562 154.121094 163.65625 155.324219 163.847656 156.664062 C 165.085938 165.324219 172.550781 172.003906 181.550781 172.003906 C 190.550781 172.003906 198.019531 165.324219 199.253906 156.664062 C 199.445312 155.324219 198.375 154.121094 197.023438 154.121094 L 192.726562 154.121094 C 191.492188 154.121094 190.492188 153.121094 190.492188 151.886719 C 190.492188 150.648438 191.492188 149.652344 192.726562 149.652344 L 197.199219 149.652344 C 198.433594 149.652344 199.433594 148.648438 199.433594 147.414062 C 199.433594 146.179688 198.433594 145.179688 197.199219 145.179688 L 192.726562 145.179688 C 191.492188 145.179688 190.492188 144.179688 190.492188 142.945312 C 190.492188 141.707031 191.492188 140.710938 192.726562 140.710938 L 197.199219 140.710938 C 198.433594 140.710938 199.433594 139.707031 199.433594 138.472656 C 199.433594 137.238281 198.433594 136.238281 197.199219 136.238281 L 192.726562 136.238281 C 191.492188 136.238281 190.492188 135.238281 190.492188 134.003906 C 190.492188 132.765625 191.492188 131.765625 192.726562 131.765625 L 197.199219 131.765625 C 198.433594 131.765625 199.433594 130.765625 199.433594 129.53125 C 199.433594 128.296875 198.433594 127.296875 197.199219 127.296875 L 192.726562 127.296875 C 191.492188 127.296875 190.492188 126.296875 190.492188 125.0625 C 190.492188 123.824219 191.492188 122.824219 192.726562 122.824219 L 197.023438 122.824219 C 198.375 122.824219 199.445312 121.625 199.253906 120.28125 C 198.019531 111.621094 190.550781 104.941406 181.550781 104.941406 C 172.550781 104.941406 165.085938 111.621094 163.847656 120.285156 C 163.65625 121.625 164.726562 122.824219 166.082031 122.824219 L 170.375 122.824219 C 171.609375 122.824219 172.609375 123.824219 172.609375 125.0625 C 172.609375 126.296875 171.609375 127.296875 170.375 127.296875 L 165.902344 127.296875 C 164.667969 127.296875 163.667969 128.296875 163.667969 129.53125 C 163.667969 130.765625 164.667969 131.769531 165.902344 131.769531 L 170.375 131.769531 C 171.609375 131.769531 172.609375 132.769531 172.609375 134.003906 C 172.609375 135.238281 171.609375 136.238281 170.375 136.238281 L 165.902344 136.238281 C 164.667969 136.238281 163.667969 137.238281 163.667969 138.472656 C 163.667969 139.710938 164.667969 140.710938 165.902344 140.710938 L 170.375 140.710938 C 171.609375 140.710938 172.609375 141.710938 172.609375 142.945312 C 172.609375 144.179688 171.609375 145.179688 170.375 145.179688 Z M 170.375 145.179688 " fill-opacity="1" fill-rule="nonzero"/></g><g clip-path="url(#e4ed2de36e)"><path fill="#ffffff" d="M 206.140625 145.179688 C 204.90625 145.179688 203.90625 146.179688 203.90625 147.414062 L 203.90625 154.121094 C 203.90625 166.449219 193.878906 176.476562 181.550781 176.476562 C 169.226562 176.476562 159.195312 166.449219 159.195312 154.121094 L 159.195312 147.414062 C 159.195312 146.179688 158.195312 145.179688 156.960938 145.179688 C 155.726562 145.179688 154.726562 146.179688 154.726562 147.414062 L 154.726562 154.121094 C 154.726562 168.160156 165.566406 179.691406 179.316406 180.835938 L 179.316406 198.832031 L 172.609375 198.832031 C 167.679688 198.832031 163.667969 202.839844 163.667969 207.773438 L 163.667969 210.007812 C 163.667969 211.246094 164.667969 212.242188 165.902344 212.242188 L 197.199219 212.242188 C 198.433594 212.242188 199.433594 211.246094 199.433594 210.007812 L 199.433594 207.773438 C 199.433594 202.839844 195.425781 198.832031 190.492188 198.832031 L 183.785156 198.832031 L 183.785156 180.832031 C 197.535156 179.691406 208.375 168.160156 208.375 154.121094 L 208.375 147.414062 C 208.375 146.179688 207.375 145.179688 206.140625 145.179688 Z M 206.140625 145.179688 " fill-opacity="1" fill-rule="nonzero"/></g><g fill="#ffffff" fill-opacity="1"><g transform="translate(111.047906, 252.526872)"><g><path d="M 17.609375 -31.59375 C 17.671875 -32.007812 17.90625 -32.351562 18.3125 -32.625 C 18.71875 -32.90625 19.160156 -33.078125 19.640625 -33.140625 C 20.117188 -33.203125 20.546875 -33.148438 20.921875 -32.984375 C 21.296875 -32.828125 21.46875 -32.539062 21.4375 -32.125 C 21.332031 -27.539062 21.191406 -22.820312 21.015625 -17.96875 C 20.835938 -13.113281 20.617188 -8.539062 20.359375 -4.25 C 20.328125 -3.445312 20.269531 -2.835938 20.1875 -2.421875 C 20.113281 -2.003906 19.898438 -1.632812 19.546875 -1.3125 C 18.835938 -0.726562 18.164062 -0.484375 17.53125 -0.578125 C 16.90625 -0.671875 16.316406 -0.945312 15.765625 -1.40625 C 15.410156 -1.695312 15.078125 -2.269531 14.765625 -3.125 C 14.460938 -3.976562 14.191406 -4.878906 13.953125 -5.828125 C 13.710938 -6.773438 13.492188 -7.539062 13.296875 -8.125 C 13.171875 -8.507812 12.921875 -9.273438 12.546875 -10.421875 C 12.179688 -11.566406 11.75 -12.921875 11.25 -14.484375 C 10.75 -16.046875 10.222656 -17.664062 9.671875 -19.34375 C 9.128906 -21.019531 8.609375 -22.597656 8.109375 -24.078125 C 7.609375 -25.566406 7.1875 -26.796875 6.84375 -27.765625 C 6.507812 -28.734375 6.289062 -29.28125 6.1875 -29.40625 C 6.0625 -27.507812 5.984375 -25.382812 5.953125 -23.03125 C 5.921875 -20.675781 5.890625 -18.28125 5.859375 -15.84375 C 5.828125 -13.40625 5.769531 -11.085938 5.6875 -8.890625 C 5.601562 -6.703125 5.472656 -4.8125 5.296875 -3.21875 C 5.117188 -1.625 4.867188 -0.503906 4.546875 0.140625 C 4.347656 0.523438 4.03125 0.773438 3.59375 0.890625 C 3.164062 1.003906 2.722656 1.015625 2.265625 0.921875 C 1.816406 0.828125 1.445312 0.648438 1.15625 0.390625 C 0.863281 0.128906 0.785156 -0.191406 0.921875 -0.578125 C 1.078125 -1.191406 1.207031 -1.835938 1.3125 -2.515625 C 1.34375 -2.835938 1.363281 -3.585938 1.375 -4.765625 C 1.394531 -5.941406 1.421875 -7.382812 1.453125 -9.09375 C 1.484375 -10.800781 1.515625 -12.644531 1.546875 -14.625 C 1.578125 -16.613281 1.625 -18.582031 1.6875 -20.53125 C 1.757812 -22.488281 1.84375 -24.28125 1.9375 -25.90625 C 2.03125 -27.53125 2.160156 -28.828125 2.328125 -29.796875 C 2.453125 -30.441406 2.753906 -31.019531 3.234375 -31.53125 C 3.722656 -32.050781 4.28125 -32.460938 4.90625 -32.765625 C 5.539062 -33.078125 6.113281 -33.234375 6.625 -33.234375 C 7.207031 -33.234375 7.738281 -32.78125 8.21875 -31.875 C 8.707031 -30.976562 9.1875 -29.785156 9.65625 -28.296875 C 10.125 -26.816406 10.628906 -25.207031 11.171875 -23.46875 C 11.847656 -21.300781 12.554688 -19.113281 13.296875 -16.90625 C 14.046875 -14.695312 14.675781 -12.851562 15.1875 -11.375 C 15.675781 -9.945312 16.015625 -8.867188 16.203125 -8.140625 C 16.398438 -7.421875 16.53125 -7.253906 16.59375 -7.640625 C 16.65625 -8.023438 16.753906 -9.171875 16.890625 -11.078125 C 16.921875 -11.523438 16.941406 -12.382812 16.953125 -13.65625 C 16.972656 -14.9375 16.988281 -16.429688 17 -18.140625 C 17.019531 -19.847656 17.046875 -21.597656 17.078125 -23.390625 C 17.109375 -25.179688 17.160156 -26.804688 17.234375 -28.265625 C 17.316406 -29.734375 17.441406 -30.84375 17.609375 -31.59375 Z M 17.609375 -31.59375 "/></g></g></g><g fill="#ffffff" fill-opacity="1"><g transform="translate(133.387432, 252.526872)"><g><path d="M 4.5 -9.671875 C 4.5 -8.960938 4.53125 -8.066406 4.59375 -6.984375 C 4.65625 -5.910156 4.804688 -4.878906 5.046875 -3.890625 C 5.296875 -2.910156 5.691406 -2.242188 6.234375 -1.890625 C 6.941406 -1.429688 7.519531 -1.453125 7.96875 -1.953125 C 8.425781 -2.453125 8.757812 -3.25 8.96875 -4.34375 C 9.175781 -5.445312 9.296875 -6.679688 9.328125 -8.046875 C 9.367188 -9.421875 9.316406 -10.789062 9.171875 -12.15625 C 9.023438 -13.53125 8.820312 -14.722656 8.5625 -15.734375 C 8.300781 -16.753906 7.992188 -17.441406 7.640625 -17.796875 C 7.285156 -18.148438 6.914062 -18.003906 6.53125 -17.359375 C 6.113281 -16.753906 5.75 -15.984375 5.4375 -15.046875 C 5.132812 -14.109375 4.898438 -13.15625 4.734375 -12.1875 C 4.578125 -11.21875 4.5 -10.378906 4.5 -9.671875 Z M 7.78125 -20.515625 C 7.914062 -20.253906 7.925781 -19.984375 7.8125 -19.703125 C 7.695312 -19.429688 7.59375 -19.1875 7.5 -18.96875 C 8.820312 -18.769531 9.898438 -18.101562 10.734375 -16.96875 C 11.578125 -15.84375 12.175781 -14.484375 12.53125 -12.890625 C 12.882812 -11.296875 12.992188 -9.648438 12.859375 -7.953125 C 12.734375 -6.265625 12.375 -4.707031 11.78125 -3.28125 C 11.1875 -1.863281 10.351562 -0.800781 9.28125 -0.09375 C 8.570312 0.351562 7.707031 0.519531 6.6875 0.40625 C 5.675781 0.289062 4.863281 0.0234375 4.25 -0.390625 C 3.125 -1.191406 2.285156 -2.328125 1.734375 -3.796875 C 1.191406 -5.265625 0.90625 -6.875 0.875 -8.625 C 0.84375 -10.382812 1.003906 -12.117188 1.359375 -13.828125 C 1.710938 -15.546875 2.226562 -17.082031 2.90625 -18.4375 C 3.582031 -19.789062 4.351562 -20.769531 5.21875 -21.375 C 5.570312 -21.632812 6.039062 -21.675781 6.625 -21.5 C 7.207031 -21.320312 7.59375 -20.992188 7.78125 -20.515625 Z M 7.78125 -20.515625 "/></g></g></g><g fill="#ffffff" fill-opacity="1"><g transform="translate(147.216663, 252.526872)"><g><path d="M 8.21875 2.125 C 8.125 2.351562 7.867188 2.441406 7.453125 2.390625 C 7.035156 2.347656 6.582031 2.210938 6.09375 1.984375 C 5.613281 1.753906 5.242188 1.460938 4.984375 1.109375 C 4.753906 0.785156 4.59375 0.109375 4.5 -0.921875 C 4.40625 -1.953125 4.347656 -3.234375 4.328125 -4.765625 C 4.316406 -6.296875 4.34375 -7.921875 4.40625 -9.640625 C 4.46875 -11.367188 4.546875 -13.085938 4.640625 -14.796875 C 4.742188 -16.503906 4.84375 -18.054688 4.9375 -19.453125 C 4.414062 -19.347656 3.921875 -19.210938 3.453125 -19.046875 C 2.984375 -18.890625 2.476562 -18.8125 1.9375 -18.8125 C 1.707031 -18.78125 1.476562 -18.851562 1.25 -19.03125 C 1.03125 -19.207031 0.910156 -19.398438 0.890625 -19.609375 C 0.878906 -19.828125 1.066406 -19.96875 1.453125 -20.03125 C 1.609375 -20.0625 1.804688 -20.097656 2.046875 -20.140625 C 2.296875 -20.191406 2.582031 -20.25 2.90625 -20.3125 C 3.289062 -20.445312 3.664062 -20.5625 4.03125 -20.65625 C 4.40625 -20.75 4.769531 -20.828125 5.125 -20.890625 L 5.46875 -25.34375 C 5.5 -25.769531 5.488281 -26.09375 5.4375 -26.3125 C 5.394531 -26.539062 5.4375 -26.703125 5.5625 -26.796875 C 5.6875 -26.890625 6.007812 -26.921875 6.53125 -26.890625 C 6.976562 -26.890625 7.390625 -26.789062 7.765625 -26.59375 C 8.140625 -26.40625 8.40625 -26.132812 8.5625 -25.78125 C 8.851562 -25.164062 8.914062 -24.507812 8.75 -23.8125 C 8.59375 -23.125 8.546875 -22.457031 8.609375 -21.8125 C 9.160156 -21.84375 9.835938 -21.988281 10.640625 -22.25 C 11.453125 -22.507812 12.097656 -22.6875 12.578125 -22.78125 C 12.671875 -22.8125 12.8125 -22.753906 13 -22.609375 C 13.195312 -22.460938 13.3125 -22.285156 13.34375 -22.078125 C 13.382812 -21.867188 13.207031 -21.65625 12.8125 -21.4375 C 12.207031 -21.113281 11.492188 -20.863281 10.671875 -20.6875 C 9.847656 -20.507812 9.113281 -20.320312 8.46875 -20.125 C 8.300781 -18.894531 8.171875 -17.398438 8.078125 -15.640625 C 7.984375 -13.890625 7.921875 -12.03125 7.890625 -10.0625 C 7.859375 -8.09375 7.863281 -6.203125 7.90625 -4.390625 C 7.957031 -2.585938 8.046875 -1.0625 8.171875 0.1875 C 8.203125 0.675781 8.234375 1.101562 8.265625 1.46875 C 8.304688 1.84375 8.289062 2.0625 8.21875 2.125 Z M 8.21875 2.125 "/></g></g></g><g fill="#ffffff" fill-opacity="1"><g transform="translate(161.094237, 252.526872)"><g><path d="M 4.203125 -8.703125 C 4.660156 -8.929688 5.210938 -9.316406 5.859375 -9.859375 C 6.503906 -10.410156 7.15625 -11.03125 7.8125 -11.71875 C 8.46875 -12.414062 9.054688 -13.109375 9.578125 -13.796875 C 10.097656 -14.492188 10.4375 -15.085938 10.59375 -15.578125 C 10.945312 -16.640625 11.113281 -17.523438 11.09375 -18.234375 C 11.082031 -18.941406 10.816406 -19.320312 10.296875 -19.375 C 9.785156 -19.425781 9 -19 7.9375 -18.09375 C 7.351562 -17.601562 6.832031 -16.957031 6.375 -16.15625 C 5.925781 -15.351562 5.53125 -14.484375 5.1875 -13.546875 C 4.851562 -12.609375 4.601562 -11.710938 4.4375 -10.859375 C 4.28125 -10.003906 4.203125 -9.285156 4.203125 -8.703125 Z M 4.40625 -5.078125 C 4.5 -4.109375 4.726562 -3.210938 5.09375 -2.390625 C 5.46875 -1.566406 5.984375 -1.054688 6.640625 -0.859375 C 7.304688 -0.671875 8.125 -1.046875 9.09375 -1.984375 C 9.382812 -2.273438 9.640625 -2.53125 9.859375 -2.75 C 10.085938 -2.976562 10.269531 -3.109375 10.40625 -3.140625 C 10.695312 -3.140625 10.875 -2.859375 10.9375 -2.296875 C 11 -1.734375 10.945312 -1.289062 10.78125 -0.96875 C 10.332031 -0.0625 9.679688 0.515625 8.828125 0.765625 C 7.972656 1.023438 7.078125 1.039062 6.140625 0.8125 C 5.203125 0.59375 4.410156 0.191406 3.765625 -0.390625 C 2.804688 -1.191406 2.097656 -2.238281 1.640625 -3.53125 C 1.191406 -4.820312 0.941406 -6.21875 0.890625 -7.71875 C 0.847656 -9.21875 0.960938 -10.660156 1.234375 -12.046875 C 1.503906 -13.429688 1.882812 -14.625 2.375 -15.625 C 2.851562 -16.59375 3.398438 -17.519531 4.015625 -18.40625 C 4.628906 -19.289062 5.382812 -20 6.28125 -20.53125 C 7.1875 -21.0625 8.285156 -21.28125 9.578125 -21.1875 C 11.191406 -21.0625 12.3125 -20.550781 12.9375 -19.65625 C 13.570312 -18.769531 13.816406 -17.691406 13.671875 -16.421875 C 13.523438 -15.148438 13.09375 -13.867188 12.375 -12.578125 C 11.664062 -11.285156 10.765625 -10.171875 9.671875 -9.234375 C 8.773438 -8.460938 7.90625 -7.753906 7.0625 -7.109375 C 6.226562 -6.460938 5.34375 -5.785156 4.40625 -5.078125 Z M 4.40625 -5.078125 "/></g></g></g><g fill="#f5cd7b" fill-opacity="1"><g transform="translate(175.714478, 252.526872)"><g><path d="M 1.359375 -2.515625 C 1.003906 -2.992188 0.847656 -3.457031 0.890625 -3.90625 C 0.941406 -4.363281 1.128906 -4.664062 1.453125 -4.8125 C 1.773438 -4.957031 2.160156 -4.835938 2.609375 -4.453125 C 3.421875 -3.742188 4.171875 -3.273438 4.859375 -3.046875 C 5.554688 -2.816406 6.191406 -2.769531 6.765625 -2.90625 C 8.191406 -3.195312 9.234375 -3.84375 9.890625 -4.84375 C 10.554688 -5.84375 10.820312 -7.050781 10.6875 -8.46875 C 10.5625 -9.882812 10.035156 -11.375 9.109375 -12.9375 C 8.191406 -14.5 6.863281 -15.992188 5.125 -17.421875 C 3.539062 -18.703125 2.484375 -20.09375 1.953125 -21.59375 C 1.421875 -23.09375 1.273438 -24.566406 1.515625 -26.015625 C 1.765625 -27.472656 2.257812 -28.78125 3 -29.9375 C 3.644531 -30.96875 4.472656 -31.75 5.484375 -32.28125 C 6.503906 -32.820312 7.570312 -33.109375 8.6875 -33.140625 C 9.800781 -33.171875 10.875 -32.957031 11.90625 -32.5 C 12.9375 -32.050781 13.820312 -31.375 14.5625 -30.46875 C 14.945312 -30.019531 15.109375 -29.632812 15.046875 -29.3125 C 14.984375 -28.988281 14.804688 -28.738281 14.515625 -28.5625 C 14.222656 -28.382812 13.921875 -28.285156 13.609375 -28.265625 C 13.304688 -28.253906 13.09375 -28.332031 12.96875 -28.5 C 12.289062 -29.457031 11.503906 -30.066406 10.609375 -30.328125 C 9.722656 -30.585938 8.867188 -30.539062 8.046875 -30.1875 C 7.234375 -29.832031 6.566406 -29.203125 6.046875 -28.296875 C 5.367188 -27.171875 5.175781 -25.84375 5.46875 -24.3125 C 5.757812 -22.78125 6.613281 -21.445312 8.03125 -20.3125 C 10 -18.769531 11.535156 -17.101562 12.640625 -15.3125 C 13.753906 -13.519531 14.425781 -11.71875 14.65625 -9.90625 C 14.882812 -8.101562 14.617188 -6.394531 13.859375 -4.78125 C 13.097656 -3.175781 11.832031 -1.773438 10.0625 -0.578125 C 8.675781 0.328125 6.921875 0.441406 4.796875 -0.234375 C 4.242188 -0.429688 3.617188 -0.753906 2.921875 -1.203125 C 2.234375 -1.660156 1.710938 -2.097656 1.359375 -2.515625 Z M 1.359375 -2.515625 "/></g></g></g><g fill="#f5cd7b" fill-opacity="1"><g transform="translate(191.622931, 252.526872)"><g><path d="M 4.40625 -5.375 C 4.53125 -3.945312 4.800781 -3.046875 5.21875 -2.671875 C 5.644531 -2.304688 6.140625 -2.289062 6.703125 -2.625 C 7.265625 -2.96875 7.832031 -3.535156 8.40625 -4.328125 C 8.988281 -5.117188 9.53125 -5.972656 10.03125 -6.890625 C 10.53125 -7.804688 10.925781 -8.660156 11.21875 -9.453125 C 11.507812 -10.242188 11.640625 -10.785156 11.609375 -11.078125 C 11.578125 -11.597656 11.742188 -11.832031 12.109375 -11.78125 C 12.484375 -11.726562 12.863281 -11.492188 13.25 -11.078125 C 13.632812 -10.660156 13.847656 -10.160156 13.890625 -9.578125 C 13.921875 -8.992188 13.707031 -8.21875 13.25 -7.25 C 12.800781 -6.289062 12.222656 -5.300781 11.515625 -4.28125 C 10.804688 -3.257812 10.0625 -2.367188 9.28125 -1.609375 C 8.507812 -0.859375 7.800781 -0.382812 7.15625 -0.1875 C 6.0625 0.132812 5.046875 -0.101562 4.109375 -0.90625 C 3.171875 -1.71875 2.445312 -2.707031 1.9375 -3.875 C 1.382812 -5.09375 1.050781 -6.421875 0.9375 -7.859375 C 0.832031 -9.296875 0.882812 -10.722656 1.09375 -12.140625 C 1.300781 -13.554688 1.628906 -14.878906 2.078125 -16.109375 C 2.523438 -17.335938 3.070312 -18.351562 3.71875 -19.15625 C 4.46875 -20.09375 5.375 -20.613281 6.4375 -20.71875 C 7.5 -20.832031 8.445312 -20.585938 9.28125 -19.984375 C 9.632812 -19.691406 9.769531 -19.382812 9.6875 -19.0625 C 9.613281 -18.738281 9.253906 -18.609375 8.609375 -18.671875 C 7.734375 -18.703125 7.019531 -18.363281 6.46875 -17.65625 C 5.925781 -16.945312 5.492188 -16.023438 5.171875 -14.890625 C 4.847656 -13.765625 4.625 -12.570312 4.5 -11.3125 C 4.375 -10.0625 4.3125 -8.898438 4.3125 -7.828125 C 4.3125 -6.765625 4.34375 -5.945312 4.40625 -5.375 Z M 4.40625 -5.375 "/></g></g></g><g fill="#f5cd7b" fill-opacity="1"><g transform="translate(206.37089, 252.526872)"><g><path d="M 4.5 -9.671875 C 4.5 -8.960938 4.53125 -8.066406 4.59375 -6.984375 C 4.65625 -5.910156 4.804688 -4.878906 5.046875 -3.890625 C 5.296875 -2.910156 5.691406 -2.242188 6.234375 -1.890625 C 6.941406 -1.429688 7.519531 -1.453125 7.96875 -1.953125 C 8.425781 -2.453125 8.757812 -3.25 8.96875 -4.34375 C 9.175781 -5.445312 9.296875 -6.679688 9.328125 -8.046875 C 9.367188 -9.421875 9.316406 -10.789062 9.171875 -12.15625 C 9.023438 -13.53125 8.820312 -14.722656 8.5625 -15.734375 C 8.300781 -16.753906 7.992188 -17.441406 7.640625 -17.796875 C 7.285156 -18.148438 6.914062 -18.003906 6.53125 -17.359375 C 6.113281 -16.753906 5.75 -15.984375 5.4375 -15.046875 C 5.132812 -14.109375 4.898438 -13.15625 4.734375 -12.1875 C 4.578125 -11.21875 4.5 -10.378906 4.5 -9.671875 Z M 7.78125 -20.515625 C 7.914062 -20.253906 7.925781 -19.984375 7.8125 -19.703125 C 7.695312 -19.429688 7.59375 -19.1875 7.5 -18.96875 C 8.820312 -18.769531 9.898438 -18.101562 10.734375 -16.96875 C 11.578125 -15.84375 12.175781 -14.484375 12.53125 -12.890625 C 12.882812 -11.296875 12.992188 -9.648438 12.859375 -7.953125 C 12.734375 -6.265625 12.375 -4.707031 11.78125 -3.28125 C 11.1875 -1.863281 10.351562 -0.800781 9.28125 -0.09375 C 8.570312 0.351562 7.707031 0.519531 6.6875 0.40625 C 5.675781 0.289062 4.863281 0.0234375 4.25 -0.390625 C 3.125 -1.191406 2.285156 -2.328125 1.734375 -3.796875 C 1.191406 -5.265625 0.90625 -6.875 0.875 -8.625 C 0.84375 -10.382812 1.003906 -12.117188 1.359375 -13.828125 C 1.710938 -15.546875 2.226562 -17.082031 2.90625 -18.4375 C 3.582031 -19.789062 4.351562 -20.769531 5.21875 -21.375 C 5.570312 -21.632812 6.039062 -21.675781 6.625 -21.5 C 7.207031 -21.320312 7.59375 -20.992188 7.78125 -20.515625 Z M 7.78125 -20.515625 "/></g></g></g><g fill="#f5cd7b" fill-opacity="1"><g transform="translate(220.200122, 252.526872)"><g><path d="M 11.90625 -9.09375 C 12.769531 -10.96875 13.222656 -12.6875 13.265625 -14.25 C 13.316406 -15.8125 12.832031 -17.023438 11.8125 -17.890625 C 10.800781 -18.765625 9.117188 -19.109375 6.765625 -18.921875 C 7.347656 -18.046875 7.71875 -17.144531 7.875 -16.21875 C 8.039062 -15.300781 8.078125 -14.296875 7.984375 -13.203125 C 7.890625 -12.109375 7.757812 -10.882812 7.59375 -9.53125 C 7.4375 -8.175781 7.335938 -6.613281 7.296875 -4.84375 C 7.816406 -5 8.382812 -5.300781 9 -5.75 C 9.613281 -6.207031 10.1875 -6.734375 10.71875 -7.328125 C 11.25 -7.921875 11.644531 -8.507812 11.90625 -9.09375 Z M 4.546875 -18.484375 C 4.253906 -18.316406 3.960938 -18.175781 3.671875 -18.0625 C 3.378906 -17.957031 3.09375 -17.835938 2.8125 -17.703125 C 2.582031 -17.609375 2.28125 -17.625 1.90625 -17.75 C 1.539062 -17.882812 1.25 -18.070312 1.03125 -18.3125 C 0.820312 -18.550781 0.863281 -18.800781 1.15625 -19.0625 C 1.90625 -19.769531 2.875 -20.242188 4.0625 -20.484375 C 5.257812 -20.722656 6.375 -20.878906 7.40625 -20.953125 C 9.53125 -21.078125 11.285156 -20.695312 12.671875 -19.8125 C 14.054688 -18.925781 15.054688 -17.722656 15.671875 -16.203125 C 16.285156 -14.691406 16.460938 -13.03125 16.203125 -11.21875 C 15.941406 -9.414062 15.21875 -7.644531 14.03125 -5.90625 C 13.289062 -4.800781 12.363281 -3.835938 11.25 -3.015625 C 10.132812 -2.203125 8.769531 -1.613281 7.15625 -1.25 C 7.125 0.9375 7.140625 3.019531 7.203125 5 C 7.265625 6.988281 7.25 8.820312 7.15625 10.5 C 7.15625 10.882812 6.890625 11.140625 6.359375 11.265625 C 5.828125 11.398438 5.300781 11.34375 4.78125 11.09375 C 4.269531 10.851562 4 10.394531 3.96875 9.71875 C 3.90625 7.914062 3.851562 6.132812 3.8125 4.375 C 3.78125 2.613281 3.734375 0.832031 3.671875 -0.96875 C 3.347656 -1 2.96875 -1.132812 2.53125 -1.375 C 2.101562 -1.613281 1.726562 -1.882812 1.40625 -2.1875 C 1.082031 -2.5 0.910156 -2.789062 0.890625 -3.0625 C 0.878906 -3.34375 1.144531 -3.53125 1.6875 -3.625 L 3.828125 -4.0625 C 3.828125 -4.582031 3.859375 -5.363281 3.921875 -6.40625 C 3.984375 -7.457031 4.050781 -8.628906 4.125 -9.921875 C 4.207031 -11.210938 4.296875 -12.46875 4.390625 -13.6875 C 4.492188 -14.914062 4.5625 -15.972656 4.59375 -16.859375 C 4.625 -17.742188 4.609375 -18.285156 4.546875 -18.484375 Z M 4.546875 -18.484375 "/></g></g></g><g fill="#f5cd7b" fill-opacity="1"><g transform="translate(237.414135, 252.526872)"><g><path d="M 4.203125 -8.703125 C 4.660156 -8.929688 5.210938 -9.316406 5.859375 -9.859375 C 6.503906 -10.410156 7.15625 -11.03125 7.8125 -11.71875 C 8.46875 -12.414062 9.054688 -13.109375 9.578125 -13.796875 C 10.097656 -14.492188 10.4375 -15.085938 10.59375 -15.578125 C 10.945312 -16.640625 11.113281 -17.523438 11.09375 -18.234375 C 11.082031 -18.941406 10.816406 -19.320312 10.296875 -19.375 C 9.785156 -19.425781 9 -19 7.9375 -18.09375 C 7.351562 -17.601562 6.832031 -16.957031 6.375 -16.15625 C 5.925781 -15.351562 5.53125 -14.484375 5.1875 -13.546875 C 4.851562 -12.609375 4.601562 -11.710938 4.4375 -10.859375 C 4.28125 -10.003906 4.203125 -9.285156 4.203125 -8.703125 Z M 4.40625 -5.078125 C 4.5 -4.109375 4.726562 -3.210938 5.09375 -2.390625 C 5.46875 -1.566406 5.984375 -1.054688 6.640625 -0.859375 C 7.304688 -0.671875 8.125 -1.046875 9.09375 -1.984375 C 9.382812 -2.273438 9.640625 -2.53125 9.859375 -2.75 C 10.085938 -2.976562 10.269531 -3.109375 10.40625 -3.140625 C 10.695312 -3.140625 10.875 -2.859375 10.9375 -2.296875 C 11 -1.734375 10.945312 -1.289062 10.78125 -0.96875 C 10.332031 -0.0625 9.679688 0.515625 8.828125 0.765625 C 7.972656 1.023438 7.078125 1.039062 6.140625 0.8125 C 5.203125 0.59375 4.410156 0.191406 3.765625 -0.390625 C 2.804688 -1.191406 2.097656 -2.238281 1.640625 -3.53125 C 1.191406 -4.820312 0.941406 -6.21875 0.890625 -7.71875 C 0.847656 -9.21875 0.960938 -10.660156 1.234375 -12.046875 C 1.503906 -13.429688 1.882812 -14.625 2.375 -15.625 C 2.851562 -16.59375 3.398438 -17.519531 4.015625 -18.40625 C 4.628906 -19.289062 5.382812 -20 6.28125 -20.53125 C 7.1875 -21.0625 8.285156 -21.28125 9.578125 -21.1875 C 11.191406 -21.0625 12.3125 -20.550781 12.9375 -19.65625 C 13.570312 -18.769531 13.816406 -17.691406 13.671875 -16.421875 C 13.523438 -15.148438 13.09375 -13.867188 12.375 -12.578125 C 11.664062 -11.285156 10.765625 -10.171875 9.671875 -9.234375 C 8.773438 -8.460938 7.90625 -7.753906 7.0625 -7.109375 C 6.226562 -6.460938 5.34375 -5.785156 4.40625 -5.078125 Z M 4.40625 -5.078125 "/></g></g></g></svg>